<svg fill="none" height="127" viewBox="0 0 639 127" width="639" xmlns="http://www.w3.org/2000/svg"><path d="m-29 124.359c1.814 6.038 1.5116 12.679 2.1163 18.717 1.2093 9.056 3.0232 17.509 6.3488 25.962 2.721 6.943 7.5583 9.962 15.1165 9.962 20.5583 0 41.1168 0 61.3728-1.208 20.5583-1.207 40.8145-2.717 61.3726-4.226 25.698-1.811 51.698-4.226 77.396-5.736 14.512-.905 29.024 0 43.536-.604 26.605-.905 52.907-.905 79.512-2.415 31.443-1.811 62.885-2.113 94.327-1.811 11.186.302 22.372 1.208 33.256 2.717 13 1.509 25.698 2.415 38.698 3.019 11.489.604 22.977 1.207 34.466 2.415 1.814.302 3.628.302 5.442.302 28.419 0 56.535-.302 84.954.302 10.279.302 15.721-6.34 22.373-12.076 1.511-1.811 1.813-3.924 2.116-6.037.604-2.415.604-5.132 1.511-7.547 5.745-20.529 4.535-41.359 1.814-62.1886-1.814-13.8867-6.953-27.4715-14.511-39.5469-4.535-7.2452-8.163-15.0942-14.814-20.83-4.535-3.6226-8.466-7.849-13.001-11.4716-4.232-3.62262-9.069-6.03769-14.209-7.24522-7.256-1.50943-14.512-3.01885-21.768-4.226391-7.86-1.509422-16.023.301882-23.884.905651-11.488.60377-22.674 3.01885-33.558 7.24523-12.396 4.83013-23.884 10.56593-35.373 17.50933-11.791 6.9433-24.186 12.981-36.884 18.4149-9.977 4.2264-19.047 9.6603-28.419 15.0942-13.907 7.5471-28.116 9.3585-43.233 6.0377-8.767-1.8113-16.023-6.9433-22.977-12.0754-11.791-8.7546-23.279-17.8111-35.372-26.5658-7.861-5.7358-15.722-11.4716-24.791-15.3961-5.745-2.71696-11.791-3.92449-18.442-4.52826-25.094-2.1132-45.954 7.54706-65.001 22.03756-6.349 4.5283-11.791 9.9622-18.442 14.1886-5.744 3.9245-12.093 6.0377-19.047 6.0377-11.186 0-22.372 0-33.256-3.0189-8.465-2.1132-16.326-4.5283-23.8842-9.0565-11.4885-6.9434-24.1863-11.1698-36.8841-15.0943-10.2792-3.0188-19.9537-1.5094-29.3259 4.2264-15.7211 9.9622-29.023567 22.3395-39.60511 37.4337-8.16289 11.4716-14.20949 23.8489-16.93039 37.736-.3023 1.509-.6047 3.018-1.5117 4.528-.6047 6.339-.6046 12.075-.6046 18.113z" fill="#255242"/></svg>