<svg fill="none" height="764" viewBox="0 0 413 764" width="413" xmlns="http://www.w3.org/2000/svg"><path d="m199.938 231.919c-1.624-16.24-10.391-29.882-18.509-43.198-16.235-27.284-39.29-48.071-67.215-63.011-12.014-6.496-25.3271-5.847-38.3155-5.522-3.2471 0-5.5201 2.274-7.4684 4.872-4.5459 6.496-7.793 13.642-7.793 21.437-.3247 14.291-.3247 27.932-.3247 41.249 0 10.718 5.1954 19.813 11.6896 27.933 7.4683 9.744 14.9366 19.488 24.0285 27.608 4.2215 3.897 7.4685 8.12 10.7155 12.667 8.118 11.043 18.508 18.838 30.847 24.36 14.288 6.496 28.575 12.667 43.836 14.941 4.221.649 5.52 2.923 4.871 6.82-2.598 24.36-5.52 47.746-8.118 71.456-.974 8.12-1.948 16.565-2.598 24.685-.324 4.222-.649 8.12-2.273 13.641-2.922-10.393-4.545-19.812-8.442-28.582-8.118-17.214-14.287-35.728-26.626-50.669-14.612-17.864-32.796-30.206-55.8503-35.078-11.6896-2.274-21.4309.974-30.8475 7.146-4.8706 3.248-6.8189 8.769-7.793 14.291-3.2471 19.813-2.273 38.651 8.7672 56.19 9.0918 14.941 20.4567 28.257 34.4192 39.301 6.1695 4.872 11.6896 10.068 17.5344 15.265 9.417 8.12 19.158 14.291 32.146 16.565 9.417 1.624 18.184 4.547 27.925 3.248 3.572-.65 3.897 1.949 3.897 4.872 0 13.317-3.247 25.984-5.845 38.651-2.598 13.317-5.845 26.633-6.819 40.275 0 .325-.649.974-.974 1.299-2.598 0-2.922-2.273-3.897-3.573-4.87-8.12-10.066-15.915-15.261-23.71-15.261-23.71-37.0168-39.625-60.0712-54.241-3.8965-2.599-8.4425-4.223-12.9884-5.522-9.4166-2.598-19.1579-2.598-28.8992-2.923-7.7931-.325-13.9626 3.248-17.8591 10.393-.6494 1.3-1.9482 2.924-2.2729 4.548-7.14367 24.36-8.11779 47.42 10.066 68.207 17.2096 20.138 38.6405 34.104 63.6431 42.549 17.5347 5.846 35.7177 7.795 54.2267 4.222 1.948-.324 3.896-.649 5.845-.974 3.896-.65 5.844 1.299 5.844 5.197v4.872c-2.273 18.189-.974 36.702-1.298 54.891v4.872c-.325 4.222-1.299 4.872-5.196 3.248-.324 0-.649-.325-.649-.325-35.718-19.163-75.3329-24.035-114.2981-31.506-11.0401-1.948-21.1061.65-27.60033 11.044-6.16949 10.393-5.19537 20.462 1.29884 30.531 3.5718 5.521 8.11779 9.744 13.31309 13.641 16.2355 12.343 35.0687 15.591 54.5513 17.864 15.9108 1.949 31.4972 1.624 47.4072 1.299 7.793 0 15.262-1.948 23.055-3.572 7.143-1.624 8.442-.65 8.442 6.82 0 17.864 1.299 36.053-2.273 53.917-.324 1.624-.649 3.248-.649 4.872 0 5.197 1.299 6.821 6.494 8.12 7.144 1.624 13.963 2.923 21.106 4.222 4.546.975 5.196.325 5.52-4.547.325-14.291 0-28.257-2.273-42.224-1.298-8.445-1.948-17.214-2.273-25.659-.324-5.846.65-6.496 6.819-5.846 18.509 1.624 37.017.974 55.526-1.624 4.546-.65 9.416-1.949 13.638-3.573 19.807-8.12 39.614-16.24 59.422-24.36 6.169-2.598 12.014-5.521 17.534-9.419 6.169-4.547 8.118-10.394 5.845-17.539-1.299-4.223-2.923-8.77-6.17-11.693-14.612-13.641-30.523-24.035-51.953-20.462-5.521.974-11.041.649-16.561 1.624-13.962 2.273-26.626 8.12-37.666 16.564-14.612 11.044-29.224 22.087-43.511 33.78-.974.974-1.948 1.948-3.572 1.948-1.624-.974-1.299-2.923-.974-4.547 2.273-18.513.649-37.027 1.299-55.865 0-1.624 0-3.248 0-4.872.324-6.171.649-5.847 6.819-5.847 28.249 0 56.824 3.248 84.749-3.248 24.353-5.521 46.758-15.59 66.241-31.505 9.741-7.795 16.235-18.189 15.261-31.83-.649-6.496-2.922-11.693-8.442-15.266-6.494-4.222-13.313-8.12-20.457-11.368-5.52-2.598-11.69-3.897-17.859-3.248-15.586 1.299-30.848 2.923-46.109 6.496-12.988 2.923-24.678 8.77-35.718 15.59-12.339 7.471-24.029 15.916-35.069 25.335-1.299 1.299-2.597 3.248-4.87 1.949-1.624-.975-1.299-2.924-1.299-4.548 0-2.273 0-4.547.325-6.496 3.247-21.436 6.494-42.548 8.767-65.284 6.494 4.872 12.988 7.795 20.132 10.718 10.39 4.223 21.431 3.898 32.146 2.923 10.715-.974 21.431-2.923 32.146-3.572 6.494-.325 12.664-2.274 18.509-4.223 8.767-2.923 17.209-5.846 26.301-7.795 10.066-2.273 18.509-7.145 25.977-14.291 4.546-4.547 9.092-9.094 13.638-13.317 11.04-10.718 16.56-23.71 19.158-38.976 1.948-11.368.324-22.086-.65-33.129-.649-8.12-9.091-15.266-18.833-16.24-10.715-.974-21.106.325-31.172 2.923-33.12 9.094-62.02 27.283-90.269 45.797-11.365 7.47-20.132 18.188-28.575 28.907-4.546 5.521-8.767 11.368-14.287 16.565-1.624-5.197-1.948-16.89-.65-25.984 1.299-7.796 2.598-15.915 4.222-23.711 3.896-20.137 7.793-40.275 11.365-60.412.324-1.949.974-3.898 1.298-5.522.65-2.273 1.949-3.248 4.222-2.273 12.988 5.196 26.301 2.923 39.614 1.948 17.535-.974 34.744-3.897 51.954-6.171 4.871-.649 9.416-1.624 13.638-3.897 12.014-6.496 24.678-11.693 37.017-17.215 9.092-4.222 17.534-9.419 24.353-17.214 5.52-6.171 12.014-11.693 18.184-17.214 3.896-3.573 7.143-7.796 10.39-12.018 4.222-5.846 4.222-12.342.974-18.838-6.494-12.343-17.209-20.138-30.198-25.01-2.273-.974-4.87-1.624-7.468-1.299-15.586 1.299-31.497.974-45.784 7.47-15.586 7.146-32.471 11.693-48.057 18.514-15.586 4.872-27.276 13.642-37.017 25.334-4.546 5.197-8.767 10.719-13.313 15.915-1.948 2.274-3.572 4.872-6.494 5.847-1.949-2.274-.65-3.898-.325-5.847 2.598-9.419 4.871-18.838 9.417-27.607 5.195-10.719 8.767-22.087 12.988-33.455 2.598-7.145 1.299-10.718-5.845-14.291-6.169-3.248-12.988-4.547-20.132-5.521-6.819-.975-9.416.974-10.066 7.795-1.299 13.641-5.195 26.958-8.442 40.275z" fill="#59e892"/><path d="m299.974 144.937c-1.833 4.626-3.501 8.592-5.001 12.723-2.501 6.444-5.668 12.393-10.17 17.516-3.001 3.304-5.668 6.94-8.502 10.41-5.836 7.436-13.171 12.393-22.507 14.541-13.004 2.974-25.842 2.313-38.512-1.322-12.171-3.635-21.507-16.689-21.507-29.248 0-7.105-.167-14.376 2.168-21.316 2.667-8.262 7.002-15.532 13.004-21.811 2-2.149 4.334-4.131 6.335-6.445 2.167-2.478 2-3.305-1-4.627-6.002-2.313-11.671-5.618-17.006-9.253-4.168-2.809-8.169-6.1139-11.17-10.4101-8.169-11.8973-8.836-24.2904-4.334-37.3444 1.833-4.9572 4.501-9.4187 8.335-13.054 3.668-3.6352 7.169-7.601 11.504-10.7406s9.336-4.9572 14.671-5.1224c8.836-.1653 17.505.4957 25.675 4.2962 4.834 2.3134 9.336 5.4529 13.504 8.7578 3.334 2.6438 6.502 5.2877 9.836 7.9315 3.335 2.6438 6.502 5.2877 9.17 8.923.333-2.8091.667-5.453 1-8.262 1.334-13.3845 6.502-25.1166 15.505-35.1963 6.835-7.76626 16.171-11.89727 26.174-14.21064 6.502-1.487164 13.004-1.982886 19.673-1.487164 2.834.16524 5.502.826204 8.003 1.982884 10.003 4.62673 18.005 11.40162 22.673 21.64652.334.6609.667 1.3219 1.001 1.9829 9.502 14.3759 5.668 37.6748-1.334 49.0764-2.501 3.9658-5.835 7.4358-9.336 10.5754-3.168 2.9743-3.168 2.8091-.501 6.2791 8.003 10.0799 16.005 20.3249 21.84 31.8919 2.501 5.287 3.835 10.575 3.835 16.358 0 7.436-1.167 14.376-3.835 21.316-3.667 9.419-17.838 19.499-28.842 19.003-6.335-.33-12.67-.496-19.006-2.148-4.167-1.157-7.835-3.14-11.003-5.949-7.669-7.105-14.671-14.871-18.839-24.621-.333-.661-.834-1.322-1.501-2.643zm-29.675-35.858v3.636c0 4.957 2.5 8.096 7.002 9.914 2.834 1.157 5.835.992 8.836.992 2.167 0 3.834-.827 5.335-2.149 5.001-4.131 7.502-9.749 9.67-15.532.833-1.983.666-4.296 1-6.6098.167-1.322-.334-2.6439-1.167-3.8006-4.168-5.7834-5.335-6.6096-12.504-7.2705-1.667-.1653-3.501-.1653-5.168-.1653-4.002 0-6.836 1.6524-9.003 4.9572-3.168 4.9573-4.168 10.245-4.001 16.028z" fill="#ffaa2c"/></svg>