<svg width="88" height="85" viewBox="0 0 88 85" fill="none" xmlns="http://www.w3.org/2000/svg">
<path d="M33.9348 80.7527L34.0518 80.1389L34.3234 80.1297L34.6631 78.3582L35.0635 78.4325C35.2384 78.4663 36.1657 78.3824 36.9941 78.5241C38.7891 78.8505 39.8643 80.1498 39.4787 82.2012C39.155 83.9208 37.7037 85.2844 35.8673 84.949C35.5175 84.8814 35.2229 84.762 34.9882 84.647C34.7534 84.532 34.5785 84.4215 34.4864 84.4058C34.3115 84.372 34.0654 84.5188 33.9066 84.5865L33.8642 82.4677L34.4464 82.411C34.5986 83.1601 35.2502 84.1414 35.959 84.2742C37.0061 84.4678 37.2081 83.4207 37.3848 82.4661C37.5593 81.5409 37.8896 79.3496 36.5986 79.12C36.3409 79.0683 36.3064 79.2398 36.2628 79.4903L36.0815 80.4268L36.4244 80.544L36.3073 81.1578L33.9348 80.7527Z" fill="#255242"/>
<path d="M24.8591 75.05L24.5138 74.8087L24.792 74.2512L26.7437 75.1913L26.6439 78.2851L26.7659 78.3414L27.7154 76.4297L27.3356 76.1681L27.6137 75.6107L30.157 76.8371L29.8788 77.3945L29.4346 77.2639L27.2553 81.6357L27.6328 81.8883L27.3546 82.4458L24.5996 81.1179C23.4742 80.5791 22.314 79.7515 23.0152 78.3612C23.4865 77.4109 24.4484 77.5391 24.8143 77.5931L24.8591 75.05ZM26.4578 78.935L26.2231 78.82C25.5971 78.5134 25.153 78.6129 24.8013 79.3036C24.4564 79.9829 24.6499 80.3958 25.2851 80.7001L25.5199 80.8151L26.4578 78.935Z" fill="#255242"/>
<path d="M17.0106 70.897L17.4871 71.3075C17.1306 71.7116 17.1378 72.2374 17.566 72.6117L19.1022 70.8916L18.8628 70.6818C18.071 69.9939 17.254 69.8973 16.2694 70.3693L15.8757 69.8234L17.6515 68.5816C17.7851 68.7981 17.9831 68.9989 18.1787 69.1906C18.3744 69.3823 18.5885 69.5695 18.7865 69.7319L21.3923 71.9692L20.9737 72.4365L20.5295 72.1523L17.2591 75.8139L17.6136 76.2064L17.1951 76.6736L14.6008 74.4431C14.2255 74.1229 13.7467 73.7033 13.2818 73.4914L14.3671 71.7286L14.8758 72.0353C14.6968 73.1726 14.7615 73.6939 15.8043 74.5983L17.1198 73.1242C16.7077 72.7746 16.1578 72.8042 15.8542 73.1473L15.3777 72.7368L17.0106 70.897Z" fill="#255242"/>
<path d="M10.4973 63.1646L10.8542 63.6812C10.4011 63.9747 10.2702 64.496 10.5856 64.9652L12.5202 63.694L12.3452 63.43C11.7534 62.5683 11.0008 62.264 9.92866 62.4698L9.69826 61.8359L11.7366 61.0858C11.8173 61.3249 11.9486 61.5708 12.089 61.8145C12.2295 62.0581 12.3861 62.2882 12.5265 62.4935L14.4492 65.311L13.9225 65.661L13.5679 65.2685L9.448 67.9782L9.68523 68.4475L9.15845 68.7975L7.23807 65.989C6.95716 65.5784 6.60025 65.0618 6.21353 64.7348L7.72464 63.299L8.13442 63.7162C7.6609 64.7725 7.58751 65.2893 8.36579 66.4217L10.0243 65.3333C9.72499 64.8889 9.17959 64.7831 8.79313 65.0315L8.43623 64.5149L10.4973 63.1646Z" fill="#255242"/>
<path d="M8.21937 53.4039L4.7996 57.4378L4.80421 57.4559L7.94925 56.4052C8.26444 56.299 8.41153 55.9176 8.29402 55.5724L8.89679 55.3668L9.52813 57.1875L8.92535 57.3931C8.8286 57.1675 8.56616 56.9059 8.16124 57.0437L4.48474 58.2729C4.07982 58.4107 4.03628 58.7763 4.09621 59.0109L3.49343 59.2166L2.76072 57.1138L4.09686 55.4524C4.52231 54.9355 4.97078 54.4321 5.41004 53.9309L5.40543 53.9129L3.20828 54.654C2.89309 54.7602 2.746 55.1416 2.86351 55.4868L2.26073 55.6924L1.6386 53.8694L2.24138 53.6638C2.33813 53.8894 2.60057 54.1511 3.00549 54.0132L7.86224 52.3886L8.21937 53.4039Z" fill="#255242"/>
<path d="M4.51728 44.1561L4.55899 44.7789C4.01136 44.8175 3.64108 45.2058 3.68505 45.7608L6.00903 45.5928L5.98818 45.2814C5.90946 44.2457 5.40523 43.6119 4.36961 43.2716L4.48435 42.6104L6.63599 42.9547C6.58087 43.1984 6.5741 43.4782 6.57653 43.7558C6.57896 44.0333 6.5998 44.3063 6.61603 44.5613L6.86381 47.9437L6.22874 47.9846L6.11806 47.4747L1.17098 47.8267L1.14821 48.3502L0.51314 48.3911L0.258455 45.02C0.22141 44.5303 0.179702 43.9075 0 43.4338L2.03158 42.9251L2.17451 43.4847C1.2337 44.1666 0.900243 44.5842 1.00443 45.9493L2.99246 45.8063C2.95309 45.2692 2.52954 44.9129 2.06934 44.9492L2.02764 44.3264L4.51728 44.1561Z" fill="#255242"/>
<path d="M3.19161 33.6819C2.40016 33.9147 1.58113 34.231 1.40897 35.1269C1.3401 35.4699 1.49444 35.8444 1.86264 35.9074C3.03167 36.119 3.14516 32.7725 5.59598 33.216C6.77652 33.4343 7.63062 34.3275 7.34141 35.8756C7.21287 36.5594 6.77825 37.1553 6.73922 37.3472C6.69331 37.5886 6.83377 37.7939 6.94201 37.9879L4.70769 37.9709L4.66369 37.3774C5.53567 37.1153 6.48123 36.7583 6.66946 35.7721C6.76358 35.2982 6.69893 34.8154 6.12592 34.7163C4.83493 34.4867 4.67081 37.8265 2.4248 37.419C1.10159 37.1782 0.516696 36.2668 0.748507 34.9918C0.85639 34.4186 1.23352 33.9039 1.26335 33.7144C1.30925 33.4729 1.1688 33.2676 1.06056 33.0736L3.15222 33.1065L3.19161 33.6819Z" fill="#255242"/>
<path d="M9.33998 28.69L8.7646 28.4285L8.92084 27.9297L4.39144 25.8963C4.23754 26.4809 4.74176 27.1147 5.17454 27.5071L4.8089 27.9902L3.04805 26.8018C3.12394 26.716 3.20904 26.628 3.28263 26.5332C3.34471 26.4316 3.41599 26.3278 3.45967 26.2307L4.83892 23.2831C4.93317 23.0777 4.98828 22.834 5.00658 22.5993L7.07776 23.1264L6.92387 23.7109C6.33937 23.6435 5.52712 23.6799 5.17529 24.1788L9.70469 26.2121L9.99212 25.7675L10.5675 26.029L9.33998 28.69Z" fill="#255242"/>
<path d="M14.1001 17.2676L13.6954 17.7507C13.2672 17.4146 12.7265 17.442 12.37 17.8844L14.1839 19.3187L14.3863 19.0772C15.0509 18.2713 15.1288 17.4657 14.606 16.5295L15.1489 16.1276L16.482 17.8239C16.2726 17.9616 16.0702 18.1648 15.877 18.3657C15.6838 18.5666 15.5045 18.7833 15.3481 18.9752L13.1679 21.6208L12.6753 21.2239L12.9512 20.7725L9.09786 17.7099L8.71145 18.0733L8.21885 17.6764L10.3921 15.0421C10.7049 14.6583 11.1096 14.1752 11.3142 13.7126L13.1555 14.7182L12.8635 15.2215C11.6945 15.0866 11.1699 15.1771 10.2868 16.2381L11.8337 17.4694C12.1764 17.0496 12.1186 16.5171 11.7595 16.2216L12.1642 15.7385L14.1001 17.2676Z" fill="#255242"/>
<path d="M23.888 10.7103L24.2722 10.5296L24.636 11.0349L22.8717 12.2835L20.1304 10.7413L20.0223 10.8158L21.2841 12.5392L21.6913 12.3337L22.0643 12.8368L19.7686 14.4557L19.3956 13.9527L19.7245 13.6321L16.8302 9.69125L16.423 9.89678L16.05 9.39374L18.5436 7.63028C19.5626 6.91 20.8463 6.30693 21.7627 7.55889C22.3913 8.41157 21.8256 9.18356 21.6071 9.477L23.888 10.7103ZM19.6378 10.2677L19.854 10.1186C20.4268 9.71898 20.5416 9.28793 20.088 8.66082C19.6367 8.04274 19.1788 8.01135 18.6084 8.42004L18.3921 8.56906L19.6378 10.2677Z" fill="#255242"/>
<path d="M54.4387 5.1433L53.5422 7.18585C53.3166 7.06861 53.0405 6.98298 52.7689 6.91541C52.4974 6.84783 52.2166 6.78252 51.9704 6.7375L49.0731 6.15436L49.2086 5.49765L52.9826 1.24242L52.5592 1.15461C51.6617 0.972235 51.2477 1.41921 50.7187 2.06707L50.1502 1.75592L50.9341 0C51.1573 0.108213 51.4358 0.202862 51.7074 0.270436C51.9812 0.347035 52.2689 0.401063 52.5059 0.448344L55.1984 0.995472L55.0629 1.65218L51.2774 5.90064L51.6272 5.96818C52.7203 6.18883 53.2469 5.60867 53.861 4.83441L54.4387 5.1433Z" fill="#255242"/>
<path d="M63.327 3.90958C64.777 4.60845 65.3968 6.34569 64.5163 8.10617C63.6358 9.86665 61.8505 10.4587 60.4005 9.75979C58.9505 9.06092 58.3308 7.32368 59.2112 5.5632C60.0917 3.80272 61.8863 3.20845 63.327 3.90958ZM61.0272 6.43114C60.5858 7.30687 59.9053 8.77843 60.7086 9.16619C61.5118 9.55395 62.2797 8.11846 62.7119 7.24499C63.1533 6.36926 63.8337 4.89771 63.0305 4.50995C62.2272 4.12219 61.4594 5.55768 61.0272 6.43114ZM62.3184 2.14318C62.4977 1.77303 62.8957 1.64649 63.2731 1.82233C63.6506 1.99817 63.7796 2.38848 63.6003 2.75863C63.421 3.12878 63.023 3.25533 62.6455 3.07949C62.2681 2.90365 62.1298 2.51559 62.3184 2.14318ZM64.1136 3.00662C64.2929 2.63647 64.6909 2.50993 65.0684 2.68577C65.4458 2.86161 65.5748 3.25193 65.3955 3.62208C65.2162 3.99223 64.8182 4.11877 64.4408 3.94293C64.0633 3.76709 63.9343 3.37677 64.1136 3.00662Z" fill="#255242"/>
<path d="M70.1071 16.4009C69.9644 16.1866 69.7756 15.9836 69.5707 15.7941C69.3658 15.6047 69.1517 15.4175 68.963 15.2528L66.7001 13.3245L67.1164 12.8482L67.5607 13.1323L70.808 9.45725L70.4558 9.0738L70.872 8.59748L73.1832 10.5619L72.7669 11.0382L72.2675 10.6909L68.9971 14.3908L69.172 14.5397C69.8718 15.1351 70.7945 15.0331 71.5329 14.5544L71.9151 15.0935L70.1071 16.4009Z" fill="#255242"/>
<path d="M78.2691 16.8418L78.0227 16.3748L78.5495 16.0248L80.205 18.4092C81.4001 20.1394 80.5725 21.7622 79.3188 22.5977C77.865 23.5686 76.1116 23.6348 74.7278 21.6249L73.284 19.5338L73.8108 19.1838L74.1653 19.5762L78.2691 16.8418ZM75.2223 21.1486L75.3742 21.3606C76.0236 22.2945 77.3854 21.4996 78.2204 20.9396C79.3821 20.1651 80.1112 19.4585 79.4918 18.5652L79.3675 18.3847L75.2223 21.1486Z" fill="#255242"/>
<path d="M81.7527 31.1691L81.543 30.578C82.0561 30.404 82.3182 29.9368 82.1338 29.4066L79.9275 30.1499L80.0312 30.441C80.3699 31.4224 81.0236 31.914 82.1166 31.9813L82.1791 32.6469L80.0116 32.8532C79.9977 32.6073 79.9377 32.3343 79.8593 32.0658C79.781 31.7973 79.6957 31.5401 79.6151 31.3009L78.493 28.0949L79.0957 27.8893L79.333 28.3585L84.0264 26.7836L83.9157 26.2737L84.5185 26.0681L85.6406 29.2741C85.7995 29.7434 86.0092 30.3345 86.2993 30.7428L84.4636 31.75L84.178 31.2447C84.9162 30.344 85.1162 29.8633 84.6692 28.5728L82.7872 29.2077C82.9646 29.7108 83.4572 29.9543 83.8989 29.8074L84.1086 30.3985L81.7527 31.1691Z" fill="#255242"/>
<path d="M85.7772 40.9515C86.4788 40.5202 87.1896 40.0099 87.1132 39.0983C87.0831 38.7509 86.8437 38.426 86.4709 38.46C85.2813 38.5508 86.056 41.8134 83.5733 42.0108C82.3745 42.1039 81.318 41.4522 81.1907 39.8817C81.1305 39.1868 81.3971 38.5074 81.3855 38.3089C81.3624 38.0652 81.1829 37.8983 81.024 37.7359L83.1913 37.1843L83.3918 37.7393C82.612 38.209 81.7931 38.7938 81.8741 39.8002C81.9088 40.2808 82.0931 40.7343 82.6775 40.6867C83.9822 40.5868 83.265 37.3197 85.5476 37.1426C86.8914 37.0428 87.704 37.7735 87.7989 39.0642C87.8498 39.6463 87.6177 40.2309 87.6385 40.4272C87.6616 40.6709 87.8412 40.8378 88 41.0002L85.9661 41.4998L85.7772 40.9515Z" fill="#255242"/>
<path d="M82.5376 51.5496L80.4249 50.7449C80.5329 50.517 80.611 50.2484 80.6799 49.9821C80.7488 49.7158 80.7947 49.436 80.8406 49.1945L81.3409 46.3285L82.0152 46.441L86.4809 49.9863L86.552 49.5756C86.7058 48.6842 86.2362 48.3008 85.5617 47.8047L85.856 47.2336L87.6696 47.9391C87.5615 48.1671 87.4834 48.4356 87.4145 48.7019C87.3456 48.9682 87.302 49.2571 87.2538 49.4895L86.781 52.1569L86.1068 52.0444L81.6457 48.4789L81.586 48.8196C81.4001 49.8915 82.0078 50.3945 82.8204 50.9718L82.5376 51.5496Z" fill="#255242"/>
<path d="M78.8512 56.0711L79.4334 56.3213L79.2887 56.8268L83.8434 58.806C83.9858 58.2147 83.4746 57.5921 83.0442 57.2087L83.3868 56.7121L85.1615 57.878C85.0856 57.9638 85.0005 58.0518 84.9269 58.1466C84.8648 58.2482 84.7935 58.352 84.7498 58.449L83.4143 61.4147C83.3201 61.6201 83.2673 61.8729 83.2558 62.0963L81.1732 61.6008L81.3179 61.0185C81.9001 61.0769 82.7192 61.0292 83.0595 60.5235L78.5048 58.5444L78.2266 58.9868L77.6443 58.7366L78.8512 56.0711Z" fill="#255242"/>
<path d="M74.2406 67.543L74.6339 67.0531C75.062 67.3892 75.6004 67.3528 75.9569 66.9104L74.1292 65.4986L73.9291 65.7492C73.276 66.5618 73.2073 67.3652 73.7393 68.2991L73.1988 68.7101L71.8427 67.0386C72.0497 66.8918 72.2521 66.6887 72.4361 66.49C72.627 66.2801 72.7972 66.0656 72.9627 65.8715L75.1084 63.2056L75.6079 63.5912L75.3412 64.0404L79.2405 67.0533L79.6154 66.6831L80.1149 67.0687L77.9762 69.7234C77.6634 70.1071 77.2702 70.5969 77.0748 71.0574L75.2243 70.0924L75.5048 69.5823C76.6692 69.6991 77.203 69.6064 78.0631 68.5319L76.5024 67.3231C76.1598 67.743 76.229 68.2822 76.595 68.5664L76.2018 69.0562L74.2406 67.543Z" fill="#255242"/>
<path d="M64.5448 74.2312L64.1629 74.4209L63.7807 73.9201L65.5289 72.6466L68.2909 74.155L68.399 74.0805L67.1119 72.3729L66.7047 72.5784L66.3225 72.0776L68.5998 70.4249L68.982 70.9256L68.6623 71.2439L71.6187 75.1599L72.0235 74.9454L72.4057 75.4462L69.9376 77.2322C68.9323 77.9682 67.6532 78.5894 66.7184 77.3419C66.0807 76.4915 66.6349 75.7128 66.8464 75.4306L64.5448 74.2312ZM68.7927 74.6264L68.5788 74.7845C68.0175 75.1909 67.8935 75.6242 68.3632 76.2378C68.8214 76.8445 69.2793 76.8759 69.8475 76.4582L70.0614 76.3002L68.7927 74.6264Z" fill="#255242"/>
<ellipse cx="36.177" cy="3.41298" rx="2.07957" ry="2.03932" fill="#FFAA2C"/>
<ellipse cx="53.8037" cy="81.2957" rx="2.07956" ry="2.03933" fill="white"/>
</svg>
